<?xml version="1.0" encoding="UTF-8"?>
<svg width="107px" height="72px" viewBox="0 0 107 72" version="1.1" xmlns="http://www.w3.org/2000/svg" xmlns:xlink="http://www.w3.org/1999/xlink">
    <title>g74</title>
    <g id="05012021" stroke="none" stroke-width="1" fill="none" fill-rule="evenodd">
        <g id="Home" transform="translate(-262.000000, -884.000000)" fill-rule="nonzero">
            <g id="footer" transform="translate(0.000000, 831.000000)">
                <g id="g74" transform="translate(264.000000, 54.000000)">
                    <path d="M22.0994679,0 L0.881993619,35.3492698 C4.96628208,37.5599369 6.93165897,36.4634104 9.10263498,35.2516125 C9.10263498,35.2516125 14.3146169,32.9009253 18.5229738,35.2516125 C22.7328815,37.6020767 24.9373117,36.482808 27.1419634,35.2516125 C27.1419634,35.2516125 32.3528375,32.9009253 36.5625237,35.2516125 C40.7708806,37.6020767 42.9753108,36.482808 45.1799625,35.2516125 C45.1799625,35.2516125 50.3919444,32.9009253 54.5998582,35.2516125 C58.6644287,37.5211416 60.8586675,36.5557166 62.9908721,35.3778089 L83.7907231,0 L22.0994679,0 L22.0994679,0 Z" id="path28" stroke="#FFFFFF" stroke-width="0.875" fill="#522E91"></path>
                    <path d="M54.3441886,35.6837126 C50.1187723,33.2685894 44.8881802,35.6837126 44.8881802,35.6837126 C42.6744449,36.9485754 40.4613742,38.0988358 36.2359579,35.6837126 C32.0114278,33.2685894 26.7790632,35.6837126 26.7790632,35.6837126 C24.5668788,36.9485754 22.3535866,38.0988358 18.1283918,35.6837126 C13.9029755,33.2685894 8.67171873,35.6837126 8.67171873,35.6837126 C6.49276689,36.92784 4.10001857,38.0549123 0,35.7831536 L21.2992265,70 L83.838135,70 L62.7664412,35.8134765 C60.6273685,37.0228217 58.4227168,38.0150021 54.3441886,35.6837126 Z" id="path30" stroke="#FFFFFF" stroke-width="0.893617021" fill="#522E91"></path>
                    <g id="g38" transform="translate(10.955686, 4.649647)" fill="#FFFFFF">
                        <path d="M11.8786661,14.6231785 C14.310629,14.7248491 16.0063786,14.6568457 14.3691184,17.5997197 C12.4684343,21.0172795 11.3542555,20.8141613 8.39655267,20.8812728 L11.8786661,14.6231785 Z M17.455099,4.59680527 C19.519066,4.59680527 21.2744128,4.49424281 19.8762059,7.00769219 C18.1953002,10.0301636 17.0908696,9.85959771 14.4327034,10.0301636 L17.455099,4.59680527 Z M8.24080248,25.4738418 C12.9771149,25.4738418 17.0625111,23.2640665 19.9362461,18.0958099 C21.6935868,14.9364399 21.8847852,13.5772643 20.0986428,12.0151933 L20.1356418,11.9476358 C22.7913709,10.8395152 24.7015817,8.8382093 25.946697,6.59811119 C28.8020433,1.46686627 26.1618228,0.00334442834 21.7412203,0.00334442834 L14.8359258,0.00334442834 L0,25.4738418 L8.24080248,25.4738418 Z" id="path32"></path>
                        <path d="M32.2336432,16.0429998 L28.8487905,16.0429998 L36.1712651,4.61397334 L36.2388381,4.61397334 L32.2336432,16.0429998 Z M22.2727206,25.4778551 L25.7258109,20.5240878 L30.3057084,20.5240878 L28.3791029,25.4778551 L34.2867542,25.4778551 L42.3212929,0 L35.2857266,0 L16.3998527,25.4778551 L22.2727206,25.4778551 Z" id="path34"></path>
                        <polygon id="path36" points="49.6408873 8.32004587 49.7058017 8.32004587 57.321831 0.00022296189 63.1645679 0.00022296189 48.934805 14.7785829 42.9841728 25.4778551 37.1421006 25.4778551 43.0920681 14.7785829 45.4365183 0.00022296189 51.3457205 0.00022296189"></polygon>
                    </g>
                    <g id="g70" transform="translate(13.325171, 39.532917)" fill="#FFFFFF">
                        <path d="M2.81834736,1.72551178 L3.67441954,1.72417053 C4.72855811,1.72328216 5.29506343,1.89317912 6.03659386,3.02694033 C6.82044049,4.2264753 6.49586861,4.57005957 5.68144797,4.57139734 L4.67937383,4.57139734 L2.81834736,1.72551178 Z M8.3320814,10.1585993 L5.62761113,6.01975777 L6.8833609,6.01886592 C7.61337069,6.03045994 8.30615996,5.88486583 8.5930682,5.42311176 C8.93957361,4.87061219 8.54521324,3.92124047 7.99355182,3.07732972 C7.08962467,1.69295935 5.61210258,0.27269211 3.8213077,0.27336076 L0,0.278043196 L6.46285754,10.1581534 L8.3320814,10.1581534 L8.3320814,10.1585993 Z" id="path40"></path>
                        <path d="M11.4550611,4.03673473 L11.4823118,4.03673473 C11.3429564,3.49672103 11.3566925,3.19170917 11.4741144,2.98145611 C11.7007609,2.57343585 12.0523619,2.59818462 12.2967324,2.58436098 L13.6233785,4.61532083 C12.6020294,4.5218998 12.0228957,4.76158383 12.7105893,5.85365116 L15.5200746,10.1492349 L13.7831166,10.1521334 L8.9234004,2.72059069 L10.5934501,2.71902996 L11.4550611,4.03673473 Z" id="path42"></path>
                        <path d="M16.8028536,5.46725821 L16.6034579,5.16514485 C16.1645658,4.49157698 15.6946566,3.83495422 16.5618063,3.83272318 C17.256368,3.83205571 17.611957,4.06839532 18.1164281,4.81999985 L18.5378177,5.46592044 L16.8028536,5.46725821 Z M16.2121992,7.22196828 C17.6008795,9.40922442 19.0292173,10.3441036 21.0322578,10.3398817 C22.8088734,10.3394214 22.813526,9.28592649 21.6619051,7.62463745 L19.924947,7.62664411 C20.5632348,8.56174627 20.6779981,9.02283146 20.0368302,9.02483812 C19.5152997,9.02483812 19.0223492,8.8406716 18.3696606,7.86499037 L17.6637999,6.78474002 L21.1370513,6.78050374 L20.4821472,5.77895893 C19.1548366,3.75134351 18.0920575,2.51256725 15.6742739,2.51457147 C13.9647882,2.51658057 13.7106695,3.52035499 14.9371745,5.27172063 L16.2121992,7.22196828 Z" id="path44"></path>
                        <path d="M24.6167277,7.68572901 C25.3793055,9.05783648 25.8873214,9.01814926 26.2896576,9.01814926 C26.7832727,9.01547372 26.8978145,8.66096431 26.4664551,8.18560957 C26.1653676,7.76488048 25.514673,7.52876384 25.0345725,7.30468714 L23.6636163,6.65898951 C22.4080881,6.0681405 21.3982597,5.3836475 20.7005963,4.31744375 C19.9521978,3.16941298 20.4424896,2.51033763 22.1123178,2.50832376 C23.795439,2.50543247 25.1382582,3.37609865 26.1412186,4.96871543 L24.4038174,4.97139097 C23.9011187,4.14286459 23.4546939,3.82603574 22.8538482,3.82603574 C22.4395483,3.82759648 22.2401526,4.01087115 22.5153187,4.43427578 C22.7993467,4.86838258 23.249981,5.06503496 23.7291953,5.28777389 L25.7663547,6.23580784 C26.3707452,6.48574812 27.530785,7.19655062 27.9116308,7.69665414 C28.9030705,8.98849533 29.4607138,10.3322866 27.0568879,10.334967 C26.1336858,10.3365229 24.1621055,9.95637289 22.8799912,7.68907344 L24.6167277,7.68572901 Z" id="path46"></path>
                        <path d="M30.5476419,7.68126977 C31.3088903,9.05114762 31.818014,9.01146041 32.2183562,9.01146041 C32.7139653,9.00989967 32.8280639,8.6540525 32.398477,8.18003552 C32.0956171,7.75796866 31.4453656,7.52096017 30.9654866,7.29777532 L29.5940873,6.65185473 C28.3390022,6.06122868 27.3298385,5.37673568 26.6323966,4.31030897 C25.8826688,3.16294708 26.3729607,2.50342581 28.0427888,2.50052731 C29.7263531,2.50052731 31.0685077,3.36851795 32.0716896,4.96314138 L30.3353962,4.96447915 C29.8329191,4.13439204 29.385165,3.81845504 28.7843193,3.81845504 C28.370684,3.81979281 28.169959,4.0052971 28.4457897,4.42647211 C28.7309255,4.86147076 29.1802305,5.05856907 29.660331,5.28264577 L31.6968257,6.22889602 C32.3016593,6.47816742 33.4608129,7.19053065 33.8421018,7.6910801 C34.8335415,8.98069166 35.3911848,10.3267126 32.9873589,10.3280539 C32.0657077,10.3293881 30.0925766,9.95012996 28.8109054,7.68283051 L30.5476419,7.68126977 Z" id="path48"></path>
                        <path d="M43.2806078,8.32629852 C43.1303963,8.62908076 42.8990973,8.86698279 42.4172244,8.86698279 C41.6435691,8.86831887 40.6733983,8.07680416 40.0918275,7.35262395 C39.3810926,6.47058671 39.6192597,5.7323599 39.8809112,5.59992053 L43.2806078,8.32629852 Z M38.9337816,3.29471756 C38.4884646,2.89918317 37.8311235,2.42583508 37.5293713,1.96452693 C37.2282838,1.50277285 37.405746,1.30433677 37.748485,1.31816041 C38.0912241,1.32975443 38.6222813,1.63186779 38.9249196,2.09518259 C39.2603475,2.60777198 39.1181119,3.00352933 38.9337816,3.29471756 Z M40.4972654,4.51900129 C41.0433881,3.96382619 41.1142843,3.13396204 40.4077589,2.05237391 C39.5629858,0.76120161 38.0094718,-0.00221989949 36.9535608,4.84909109e-06 C35.8449208,4.84909109e-06 35.0216381,0.581940251 36.0387777,2.13754535 C36.5467936,2.91389865 37.4044167,3.61266121 38.2221606,4.27017583 C37.5982736,5.07529121 37.401315,5.91853307 38.3586358,7.38071715 C39.4606294,9.06786976 41.4417364,10.3565895 42.978191,10.3565895 C43.9135783,10.3565895 44.490275,10.1565927 44.7548066,9.49729436 L45.5459644,10.1563697 L47.5512204,10.1541401 L45.0565587,8.17981256 C44.9929737,7.16422115 44.5336989,6.03023698 43.7666902,4.85701152 L42.2831862,4.85991002 C42.6533975,5.46435971 42.9646764,6.08419376 43.1556531,6.66344875 L40.4972654,4.51900129 Z" id="path50"></path>
                        <path d="M5.3743786,15.7328695 L6.22889993,15.7308629 C7.2848109,15.7308629 7.85043002,15.9000909 8.5912958,17.0336292 C9.37580708,18.2333871 9.0521214,18.5754107 8.23770077,18.5754107 L7.23540508,18.5783092 L5.3743786,15.7328695 Z M10.8881126,24.1643963 L8.18408548,20.0266696 L9.43939215,20.0266696 C10.1687373,20.0378177 10.8624128,19.8913317 11.1475486,19.4304695 C11.4944971,18.8766322 11.1012445,17.9274834 10.5495831,17.0833497 C9.64432661,15.700986 8.16702607,14.2780432 6.37667429,14.2800477 L2.55603124,14.2854009 L9.01888879,24.1668489 L10.8881126,24.1643963 Z" id="path52"></path>
                        <path d="M16.9632563,21.0462743 C17.3892985,21.7568539 18.4113122,23.0348714 17.3826519,23.0375469 C16.741484,23.0375469 16.3178789,22.6556132 15.9487754,22.0879523 C15.7409607,21.7731301 15.5404573,21.4021215 15.6558852,21.1918684 C15.8681309,20.8230895 16.2000139,20.5314553 16.438181,20.2436115 L16.9632563,21.0462743 Z M20.8807171,24.1528023 C20.5632348,23.8105558 20.2854101,23.46987 20.0527818,23.1117933 L17.1832562,18.725464 C16.5735485,17.7511205 15.6239819,16.5246072 13.2602567,16.5268338 C11.083742,16.5295124 11.2618688,17.5187943 12.1972561,18.9285823 L13.8542344,18.9272445 C13.4009415,18.2543455 13.2671248,17.8445416 14.0551809,17.8445416 C14.5233177,17.8445416 14.8246267,17.8973835 15.1192893,18.2264753 C15.6636395,18.8318168 15.6117966,19.1622463 15.0749791,19.4654745 C14.0740127,20.0197578 13.125997,20.4308995 14.2372956,22.130538 C15.2362681,23.6580499 16.3083523,24.3554747 17.7105471,24.3554747 C18.2976566,24.3539139 18.609157,24.0103297 18.6049475,23.3907186 L18.6315336,23.3907186 C18.7768709,23.6544825 18.962752,23.9175775 19.2376965,24.154809 L20.8807171,24.1528023 Z" id="path54"></path>
                        <path d="M22.1453289,19.3011516 L21.6018648,18.4690578 C21.3083101,18.0617065 20.9602538,17.8378527 20.5873838,17.8378527 C19.918079,17.8378527 20.4097001,18.5901261 21.0187432,19.4984729 L22.1643822,21.2509533 C23.0718542,22.6993138 23.4179165,22.9619629 23.9817632,23.0292974 C24.5075032,23.0154737 24.2024278,22.5278561 23.8683292,21.9361152 L23.420132,21.2505074 L25.1555392,21.2485007 L25.603958,21.9341086 C26.6206544,23.4870381 26.5269385,24.3445495 24.8026088,24.345669 C23.2677051,24.347894 21.8599715,23.5452312 20.6347957,21.5693429 L19.0580189,19.158233 C17.6835179,17.0762149 18.3627926,16.5226005 19.6845645,16.5210348 C21.4350371,16.5183643 22.7827304,17.5983917 23.4928007,18.7033908 L23.8807361,19.2975842 L22.1453289,19.3011516 Z" id="path56"></path>
                        <path d="M28.2543698,24.1436609 L21.7915123,14.2635507 L23.5284703,14.2619899 L26.4493957,18.7268018 C26.6563241,19.0434077 26.841319,19.3473047 27.0345113,19.6639106 L27.0610974,19.6639106 L26.7744107,16.7107804 L28.6711068,16.7087737 L28.7300393,19.7011452 L33.4778724,24.1387557 L31.5401893,24.1409853 L28.4759206,21.1129399 L28.5087101,21.8776992 L29.9904417,24.1436609 L28.2543698,24.1436609 Z" id="path58"></path>
                        <path d="M35.5037326,21.0257618 C35.9295532,21.7361184 36.9509022,23.013913 35.9229067,23.0154876 C35.2817387,23.0181493 34.8583552,22.6348778 34.4877008,22.0685546 C34.2807723,21.7519487 34.0800473,21.3829468 34.19614,21.1713559 C34.4086071,20.8019081 34.7402686,20.5111658 34.9779926,20.2213153 L35.5037326,21.0257618 Z M39.4211933,24.1327357 C39.1030464,23.7907122 38.8258864,23.4464591 38.5939228,23.0926185 L35.7241756,18.7033908 C35.1146894,17.7297162 34.1642366,16.5038717 31.8005115,16.5078752 C29.6239967,16.5094458 29.8016804,17.4978358 30.7368462,18.9074009 L32.3931598,18.906732 C31.9411962,18.2331642 31.8073795,17.8264817 32.5954356,17.8240291 C33.0629078,17.8240291 33.3653246,17.8748644 33.6591009,18.2059628 C34.2038942,18.8119732 34.1520513,19.1415109 33.6154554,19.4454079 C32.614489,20.0014749 31.665587,20.4108329 32.7771073,22.1086877 C33.7765228,23.6379833 34.8479423,24.336077 36.251688,24.3340746 C36.8379113,24.3325096 37.1494117,23.990932 37.1452023,23.370652 L37.1711237,23.370652 C37.3171257,23.63397 37.5030068,23.8977339 37.7779513,24.1340735 L39.4211933,24.1327357 Z" id="path60"></path>
                        <path d="M41.2195209,19.4634679 L42.6757742,21.6895194 C43.2354114,22.545693 43.2582311,23.0074487 42.6954922,23.0074487 C42.1622195,23.0085619 41.6045762,22.4424617 41.0992189,21.7312132 L39.478575,19.2545526 C39.0492096,18.5178865 38.5132783,17.8175632 39.3276989,17.8171173 C40.1423411,17.8171173 40.8590578,18.8708352 41.2195209,19.4634679 Z M41.5527333,24.9612621 C42.4648578,26.2131931 43.6884827,26.6336993 44.8381097,26.6323647 C47.2160141,26.6281252 46.8508984,25.4169962 45.8605665,23.9013013 L41.1470738,16.6942812 L39.4103373,16.6971797 L39.9099343,17.4612701 L39.8826836,17.4612701 C39.2034089,16.789263 38.5241343,16.4869266 37.7444971,16.5005273 C36.639845,16.5268368 36.378415,17.1080985 37.6729362,19.1499834 L39.4311631,21.8393498 C40.2477993,23.0259529 41.3927736,24.3267126 42.8625415,24.3267126 C43.5834677,24.2868024 43.9328532,24.0620568 43.8156529,23.3494706 L43.8590768,23.3751112 L44.4189356,24.2339604 C44.7971228,24.8118777 45.0430441,25.3915786 44.3097111,25.3929163 C44.09525,25.3929163 43.890537,25.3683905 43.7062068,25.2883472 C43.5424808,25.2210127 43.3933771,25.1164436 43.2896913,24.9585866 L41.5527333,24.9612621 Z" id="path62"></path>
                        <path d="M44.180547,15.7955218 L43.1638505,14.2399167 L41.4268925,14.2428152 L42.4427028,15.7961907 L44.180547,15.7955218 Z M49.6273727,24.1222565 L44.7669919,16.6900449 L43.0306985,16.6929434 L47.8886423,24.1238173 L49.6273727,24.1222565 Z" id="path64"></path>
                        <path d="M48.8058624,17.449899 L48.8333347,17.449899 C48.6607467,16.5946172 49.3659428,16.4882477 49.7687221,16.4882477 C50.7532937,16.484697 51.925962,17.0530269 52.7428196,18.3816568 L56.4919018,24.113561 L54.7569377,24.1148988 L51.5158715,19.1622463 C51.0413097,18.4360595 50.6522666,17.9633803 49.9789738,17.9379626 C49.3072318,17.9118761 49.4778259,18.5181094 50.0199607,19.3094012 L53.1646523,24.1175743 L51.4292451,24.1202499 L46.5693074,16.6889301 L48.3062655,16.6858086 L48.8058624,17.449899 Z" id="path66"></path>
                        <path d="M58.2906725,19.4440702 L59.7469257,21.6701217 C60.306563,22.5278561 60.3278318,22.9887183 59.7681946,22.9893872 C59.2342572,22.9893872 58.6757277,22.4226181 58.1692627,21.7120385 L56.5483972,19.2351549 C56.1210258,18.4964821 55.5842083,17.7983881 56.3981858,17.7983881 C57.2134927,17.7977196 57.9295447,18.8509915 58.2906725,19.4440702 Z M58.6241064,24.9414185 C59.5360094,26.1946873 60.7609636,26.6129638 61.9079319,26.6129638 C64.2891596,26.6109571 63.9224931,25.3982674 62.9306103,23.8825725 L58.2180038,16.6751065 L56.4812674,16.678005 L56.9797566,17.4427643 L56.9551645,17.4427643 C56.2752251,16.7691964 55.5966151,16.4677519 54.816978,16.4809067 C53.710775,16.5089999 53.4486804,17.0909304 54.7432016,19.1323695 L56.5032009,21.820398 C57.3169569,23.0049945 58.4652545,24.3097675 59.9345792,24.3090986 C60.6570563,24.2676277 61.0035617,24.043774 60.8876906,23.3307418 L60.9300068,23.3572743 L61.4885363,24.213448 C61.8680528,24.7929259 62.1137526,25.3726268 61.3786471,25.3753024 C61.1648507,25.3753024 60.9627964,25.3505536 60.7771368,25.2709562 C60.6134108,25.2033987 60.4645287,25.0990526 60.3599567,24.9398578 L58.6241064,24.9414185 Z" id="path68"></path>
                    </g>
                    <polygon id="polygon72" fill="#F99D1C" points="84.4075205 0.491408004 63.8139332 36.0012104 84.3913473 69.7045755 105 36.1777962"></polygon>
                </g>
            </g>
        </g>
    </g>
</svg>