<?xml version="1.0" encoding="UTF-8"?>
<svg width="135px" height="127px" viewBox="0 0 135 127" version="1.1" xmlns="http://www.w3.org/2000/svg" xmlns:xlink="http://www.w3.org/1999/xlink">
    <title>Group 2</title>
    <g id="05012021" stroke="none" stroke-width="1" fill="none" fill-rule="evenodd">
        <g id="Home" transform="translate(-333.000000, -465.000000)" fill-rule="nonzero">
            <g id="Group-4" transform="translate(253.000000, 429.000000)">
                <g id="Group-2" transform="translate(80.000000, 36.000000)">
                    <g id="tape-solid" transform="translate(0.000000, 80.000000)" fill="#FFFFFF">
                        <path d="M23.45,16.7857143 C19.7545312,16.7857143 16.75,19.7966518 16.75,23.5 C16.75,27.2033482 19.7545312,30.2142857 23.45,30.2142857 C27.1454687,30.2142857 30.15,27.2033482 30.15,23.5 C30.15,19.7966518 27.1454687,16.7857143 23.45,16.7857143 Z M65.325,40.2857143 L39.8440625,40.2857143 C44.1885938,36.0158482 46.9,30.0779018 46.9,23.5 C46.9,10.5225446 36.3998437,0 23.45,0 C10.5001563,0 0,10.5225446 0,23.5 C0,36.4774554 10.5001562,47 23.45,47 L65.325,47 C66.24625,47 67,46.2446429 67,45.3214286 L67,41.9642857 C67,41.0410714 66.24625,40.2857143 65.325,40.2857143 Z M23.45,33.5714286 C17.9015625,33.5714286 13.4,29.0602679 13.4,23.5 C13.4,17.9397321 17.9015625,13.4285714 23.45,13.4285714 C28.9984375,13.4285714 33.5,17.9397321 33.5,23.5 C33.5,29.0602679 28.9984375,33.5714286 23.45,33.5714286 Z" id="Shape"></path>
                    </g>
                    <g id="cubes-solid" transform="translate(82.000000, 80.000000)" fill="#F99D1C">
                        <path d="M50.5777344,22.8915858 L40.578125,19.0942417 L40.578125,7.71269948 C40.578125,6.13921437 39.6154297,4.73356768 38.1558594,4.17760295 L27.8042969,0.243890191 C26.9658203,-0.0812967303 26.0341797,-0.0812967303 25.1853516,0.243890191 L14.8337891,4.17760295 C13.3742188,4.73356768 12.4115234,6.13921437 12.4115234,7.71269948 L12.4115234,19.0942417 L2.41191406,22.8915858 C0.962695313,23.4475505 0,24.8531972 0,26.4266823 L0,37.9760629 C0,39.4026894 0.797070313,40.713927 2.05996094,41.353811 L12.4115234,46.5987613 C13.4570313,47.1337462 14.6992188,47.1337462 15.7447266,46.5987613 L26.5,41.1440129 L37.2552734,46.5987613 C38.3007813,47.1337462 39.5429688,47.1337462 40.5884766,46.5987613 L50.9400391,41.353811 C52.2029297,40.713927 53,39.4026894 53,37.9760629 L53,26.4266823 C53,24.8531972 52.0373047,23.4475505 50.5777344,22.8915858 Z M37.0585938,19.1781609 L28.2597656,22.5244392 L28.2597656,15.370327 L37.0585938,11.4890637 L37.0585938,19.1781609 Z M15.9414062,7.56584087 L26.5,3.55869881 L37.0585938,7.56584087 L37.0585938,7.62878027 L26.5,11.9715992 L15.9414062,7.62878027 L15.9414062,7.56584087 Z M24.6367188,38.1019417 L15.8378906,42.5601495 L15.8378906,34.2626381 L24.6367188,30.1925566 L24.6367188,38.1019417 Z M24.6367188,26.353253 L14.078125,30.6960719 L3.51953125,26.353253 L3.51953125,26.2903136 L14.078125,22.2831715 L24.6367188,26.2903136 L24.6367188,26.353253 Z M49.4804688,38.1019417 L40.6816406,42.5601495 L40.6816406,34.2626381 L49.4804688,30.1925566 L49.4804688,38.1019417 Z M49.4804688,26.353253 L38.921875,30.6960719 L28.3632812,26.353253 L28.3632812,26.2903136 L38.921875,22.2831715 L49.4804688,26.2903136 L49.4804688,26.353253 Z" id="Shape"></path>
                    </g>
                    <g id="drafting-compass-solid" transform="translate(41.000000, 0.000000)" fill="#FFFFFF">
                        <path d="M47.3085998,35.6522972 C44.7154827,37.7567371 41.860466,39.5009482 38.7642532,40.7296596 L44.3935428,50.4796447 L49.9783199,52.8646076 C50.993828,53.2983313 52.1408035,52.6358416 52.2733061,51.5396282 L53,45.5099368 L47.3085998,35.6522972 L47.3085998,35.6522972 Z M51.7070646,25.8640119 C52.2101604,25.0700594 51.9027129,24.0017947 51.0807828,23.5463331 L48.1750425,21.9346198 C47.4007305,21.5050367 46.4556144,21.7834894 45.9742573,22.52672 C41.7186468,29.1029654 34.3937382,33.1244849 26.5005176,33.1244849 C24.0233403,33.1244849 21.6113791,32.6845503 19.3153577,31.9309683 L26.2883064,19.852953 C26.3607688,19.8550233 26.4270201,19.8746909 26.4994824,19.8746909 C26.5719448,19.8746909 26.6392312,19.8550233 26.7106584,19.852953 L31.999375,29.0139433 C35.2322311,28.0864578 38.164886,26.3484575 40.5509678,23.9500377 L35.1897889,14.6637954 C35.9609953,13.2528994 36.4382117,11.6587835 36.4382117,9.93734547 C36.4382117,4.44903238 31.9890232,0 26.5005176,0 C21.012012,0 16.5628235,4.44903238 16.5628235,9.93734547 C16.5628235,11.6587835 17.0400398,13.2528994 17.8102111,14.6637954 L10.7399559,26.9105386 C9.44080939,25.7087408 8.25967304,24.3651289 7.25348151,22.873492 C6.75763198,22.1385425 5.80733999,21.8776871 5.04027422,22.3217623 L2.16765952,23.9852325 C1.355046,24.4551861 1.06726694,25.5275913 1.58382,26.3111924 C3.19558976,28.7582637 5.17484716,30.887547 7.37873787,32.7311316 L0,45.510972 L0.726693881,51.5406634 C0.859196469,52.6368768 2.006172,53.2993665 3.02168011,52.8656428 L8.60645716,50.4806798 L15.9355066,37.7867561 C19.2677396,39.0537677 22.8380632,39.7493819 26.5005176,39.7493819 C36.7539405,39.7493819 46.259966,34.469132 51.7070646,25.8640119 Z M26.5005176,6.62489698 C28.3296744,6.62489698 29.8130823,8.10825282 29.8130823,9.93734547 C29.8130823,11.7664381 28.3296744,13.249794 26.5005176,13.249794 C24.6713608,13.249794 23.1879529,11.7664381 23.1879529,9.93734547 C23.1879529,8.10825282 24.6713608,6.62489698 26.5005176,6.62489698 Z" id="Shape"></path>
                    </g>
                </g>
            </g>
        </g>
    </g>
</svg>