<?xml version="1.0" encoding="UTF-8"?>
<svg width="61px" height="42px" viewBox="0 0 61 42" version="1.1" xmlns="http://www.w3.org/2000/svg" xmlns:xlink="http://www.w3.org/1999/xlink">
    <title>g74</title>
    <g id="05012021" stroke="none" stroke-width="1" fill="none" fill-rule="evenodd">
        <g id="g74" transform="translate(1.000000, 1.000000)" fill-rule="nonzero">
            <path d="M12.6282673,0 L0.503996354,20.1995827 C2.83787548,21.4628211 3.96094798,20.8362345 5.2015057,20.1437786 C5.2015057,20.1437786 8.17978107,18.8005287 10.5845564,20.1437786 C12.990218,21.486901 14.2498924,20.8473189 15.5096934,20.1437786 C15.5096934,20.1437786 18.4873357,18.8005287 20.8928707,20.1437786 C23.2976461,21.486901 24.5573205,20.8473189 25.8171214,20.1437786 C25.8171214,20.1437786 28.7953968,18.8005287 31.199919,20.1437786 C33.5225307,21.4406523 34.7763814,20.8889809 35.9947841,20.2158908 L47.8804132,0 L12.6282673,0 L12.6282673,0 Z" id="path28" stroke="#FFFFFF" stroke-width="0.5" fill="#522E91"></path>
            <path d="M31.0538221,20.3906929 C28.6392985,19.0106225 25.6503887,20.3906929 25.6503887,20.3906929 C24.3853971,21.1134717 23.1207853,21.7707633 20.7062617,20.3906929 C18.2922445,19.0106225 15.3023219,20.3906929 15.3023219,20.3906929 C14.0382165,21.1134717 12.7734781,21.7707633 10.359081,20.3906929 C7.94455745,19.0106225 4.95526784,20.3906929 4.95526784,20.3906929 C3.71015251,21.1016228 2.34286775,21.7456642 0,20.4475164 L12.1709866,40 L47.9075057,40 L35.8665378,20.4648437 C34.6442106,21.1558981 33.3844096,21.7228584 31.0538221,20.3906929 Z" id="path30" stroke="#FFFFFF" stroke-width="0.510638298" fill="#522E91"></path>
            <g id="g38" transform="translate(6.260392, 2.656941)" fill="#FFFFFF">
                <path d="M6.78780922,8.35610199 C8.17750226,8.41419949 9.14650203,8.37534042 8.21092477,10.0569827 C7.12481959,12.009874 6.48814598,11.8938064 4.7980301,11.9321559 L6.78780922,8.35610199 Z M9.97434231,2.62674587 C11.153752,2.62674587 12.1568073,2.56813875 11.3578319,4.00439553 C10.3973144,5.73152203 9.76621119,5.63405584 8.2472591,5.73152203 L9.97434231,2.62674587 Z M4.70902999,14.556481 C7.41549421,14.556481 9.75000633,13.2937523 11.3921406,10.3404628 C12.3963353,8.53510853 12.5055915,7.75843672 11.4849388,6.86582472 L11.506081,6.82722046 C13.0236405,6.1940087 14.1151895,5.05040531 14.826684,3.77034925 C16.4583105,0.838209298 14.949613,0.00191110191 12.4235544,0.00191110191 L8.4776719,0.00191110191 L0,14.556481 L4.70902999,14.556481 Z" id="path32"></path>
                <path d="M18.4192247,9.16742845 L16.4850232,9.16742845 L20.6692943,2.63655619 L20.7079075,2.63655619 L18.4192247,9.16742845 Z M12.7272689,14.5587743 L14.7004634,11.7280502 L17.3175477,11.7280502 L16.2166302,14.5587743 L19.592431,14.5587743 L24.183596,0 L20.1632724,0 L9.37134441,14.5587743 L12.7272689,14.5587743 Z" id="path34"></path>
                <polygon id="path36" points="28.3662213 4.75431192 28.4033152 4.75431192 32.755332 0.000127406794 36.0940388 0.000127406794 27.9627457 8.44490452 24.5623845 14.5587743 21.2240575 14.5587743 24.6240389 8.44490452 25.9637248 0.000127406794 29.3404117 0.000127406794"></polygon>
            </g>
            <g id="g70" transform="translate(7.614383, 22.590238)" fill="#FFFFFF">
                <path d="M1.6104842,0.986006732 L2.09966831,0.985240304 C2.7020332,0.984732665 3.02575053,1.08181664 3.4494822,1.72968019 C3.89739456,2.41512874 3.71192492,2.61146261 3.2465417,2.61222705 L2.67392791,2.61222705 L1.6104842,0.986006732 Z M4.76118937,5.8049139 L3.21577779,3.43986158 L3.93334909,3.43935196 C4.35049754,3.44597711 4.74637712,3.36278047 4.91032469,3.098921 C5.10832778,2.78320697 4.88297899,2.24070884 4.5677439,1.75847412 C4.0512141,0.967405341 3.20691576,0.155824063 2.1836044,0.156206148 L0,0.158881826 L3.69306145,5.80465909 L4.76118937,5.80465909 L4.76118937,5.8049139 Z" id="path40"></path>
                <path d="M6.54574918,2.30670556 L6.56132103,2.30670556 C6.48168936,1.9981263 6.48953858,1.82383381 6.55663682,1.7036892 C6.68614907,1.47053477 6.88706397,1.48467692 7.02670425,1.4767777 L7.78478769,2.63732619 C7.20115966,2.58394274 6.87022611,2.72090505 7.26319388,3.34494352 L8.86861406,5.79956282 L7.87606661,5.8012191 L5.09908594,1.55462325 L6.05340007,1.55373141 L6.54574918,2.30670556 Z" id="path42"></path>
                <path d="M9.60163061,3.12414755 L9.48769022,2.95151134 C9.23689474,2.56661542 8.96837521,2.19140241 9.46388933,2.19012753 C9.86078172,2.18974612 10.0639754,2.32479732 10.3522446,2.75428563 L10.5930387,3.12338311 L9.60163061,3.12414755 Z M9.26411384,4.12683902 C10.0576454,5.37669967 10.8738384,5.91091635 12.018433,5.90850381 C13.033642,5.90824081 13.0363006,5.30624371 12.3782315,4.35693569 L11.385684,4.35808235 C11.7504199,4.89242644 11.8159989,5.15590369 11.4496172,5.15705035 C11.1515998,5.15705035 10.8699138,5.05181234 10.4969489,4.49428021 L10.0935999,3.87699429 L12.078315,3.87457357 L11.7040841,3.30226225 C10.9456209,2.14362486 10.3383186,1.43575272 8.95672797,1.43689799 C7.97987897,1.43804604 7.83466826,2.01163142 8.5355283,3.01241179 L9.26411384,4.12683902 Z" id="path44"></path>
                <path d="M14.0667016,4.39184515 C14.5024603,5.17590656 14.7927551,5.15322815 15.0226615,5.15322815 C15.3047273,5.15169927 15.3701797,4.94912247 15.1236886,4.67749118 C14.9516386,4.43707456 14.5798131,4.30215077 14.30547,4.17410694 L13.5220665,3.80513686 C12.8046218,3.46750886 12.227577,3.07637 11.8289122,2.46711071 C11.4012559,1.81109313 11.6814227,1.43447865 12.6356102,1.43332786 C13.5973937,1.4316757 14.364719,1.92919923 14.9378392,2.83926596 L13.9450385,2.84079484 C13.6577821,2.36735119 13.4026822,2.18630614 13.0593418,2.18630614 C12.822599,2.18719799 12.7086586,2.29192637 12.8658964,2.53387187 C13.0281981,2.7819329 13.2857034,2.89430569 13.5595402,3.02158508 L14.7236312,3.56331877 C15.0689972,3.70614178 15.7318771,4.11231464 15.9495033,4.39808808 C16.5160403,5.13628305 16.8346936,5.90416379 15.4610788,5.9056954 C14.9335348,5.90658452 13.8069174,5.68935594 13.0742807,4.39375625 L14.0667016,4.39184515 Z" id="path46"></path>
                <path d="M17.4557953,4.38929701 C17.8907945,5.17208436 18.1817223,5.14940595 18.4104893,5.14940595 C18.6936945,5.1485141 18.7588937,4.94517285 18.5134154,4.67430601 C18.3403526,4.43312495 17.9687803,4.29769153 17.6945638,4.17015733 L16.910907,3.80105985 C16.1937156,3.46355925 15.6170505,3.07242039 15.2185124,2.46303369 C14.7900965,1.80739833 15.0702632,1.43052904 16.0244508,1.42887275 C16.9864875,1.42887275 17.753433,1.9248674 18.3266798,2.83608079 L17.3345121,2.83684523 C17.0473823,2.36250973 16.7915228,2.18197431 16.4481824,2.18197431 C16.2118194,2.18273875 16.0971194,2.2887412 16.254737,2.52941263 C16.4176717,2.77798329 16.6744174,2.8906109 16.9487606,3.01865472 L18.1124718,3.55936916 C18.458091,3.70180995 19.1204645,4.10887466 19.3383439,4.39490291 C19.9048809,5.13182381 20.2235342,5.90097862 18.8499194,5.90174507 C18.3232616,5.9025075 17.195758,5.68578855 16.4633745,4.39018886 L17.4557953,4.38929701 Z" id="path48"></path>
                <path d="M24.7317759,4.75788487 C24.6459408,4.93090329 24.5137699,5.06684731 24.2384139,5.06684731 C23.7963252,5.06761078 23.2419419,4.61531667 22.9096157,4.2014994 C22.5034815,3.69747812 22.639577,3.27563423 22.7890921,3.19995459 L24.7317759,4.75788487 Z M22.2478752,1.88269575 C21.9934083,1.6566761 21.6177848,1.38619147 21.445355,1.12258682 C21.273305,0.858727345 21.374712,0.745335299 21.5705629,0.75323452 C21.7664137,0.759859673 22.069875,0.932495879 22.2428112,1.1972472 C22.4344843,1.49015542 22.3532068,1.71630248 22.2478752,1.88269575 Z M23.1412945,2.58228645 C23.4533646,2.26504354 23.4938768,1.79083545 23.090148,1.17278509 C22.6074205,0.434972349 21.7196982,-0.00126851399 21.1163205,2.77090919e-06 C20.4828119,2.77090919e-06 20.0123646,0.332537286 20.5935873,1.22145449 C20.8838821,1.66508494 21.3739524,2.06437784 21.8412346,2.44010047 C21.4847278,2.90016641 21.37218,3.3820189 21.9192205,4.21755265 C22.5489311,5.18163986 23.6809922,5.91805113 24.5589663,5.91805113 C25.0934733,5.91805113 25.4230143,5.80376724 25.5741752,5.42702535 L26.0262654,5.80363983 L27.172126,5.80236576 L25.746605,4.6741786 C25.7102707,4.09384066 25.447828,3.4458497 25.0095372,2.77543515 L24.1618207,2.77709144 C24.37337,3.12249126 24.5512436,3.47668215 24.6603732,3.807685 L23.1412945,2.58228645 Z" id="path50"></path>
                <path d="M3.07107349,8.99021116 L3.55937139,8.9890645 C4.16274909,8.9890645 4.48596001,9.08576625 4.90931188,9.73350239 C5.35760404,10.4190784 5.1726408,10.6145204 4.70725758,10.6145204 L4.13451719,10.6161767 L3.07107349,8.99021116 Z M6.22177865,13.8082265 L4.67662027,11.4438112 L5.39393837,11.4438112 C5.81070702,11.4501815 6.207093,11.3664753 6.37002777,11.1031254 C6.56828406,10.786647 6.34356828,10.2442762 6.02833318,9.76191411 C5.51104378,8.97199199 4.66687204,8.15888183 3.64381388,8.16002728 L1.46058928,8.16308625 L5.15365073,13.809628 L6.22177865,13.8082265 Z" id="path52"></path>
                <path d="M9.69328933,12.0264425 C9.93674198,12.4324879 10.5207498,13.1627837 9.93294397,13.1643125 C9.56656229,13.1643125 9.32450225,12.9460647 9.11358592,12.621687 C8.9948347,12.4417886 8.8802613,12.2297837 8.94622013,12.1096391 C9.06750335,11.8989083 9.25715081,11.7322602 9.39324629,11.567778 L9.69328933,12.0264425 Z M11.9318383,13.8016013 C11.7504199,13.6060319 11.5916629,13.4113543 11.4587325,13.206739 L9.81900357,10.7002651 C9.47059916,10.1434975 8.92798967,9.44263268 7.57728957,9.44390502 C6.33356684,9.44543563 6.4353536,10.0107396 6.96986066,10.8163327 L7.91670535,10.8155683 C7.65768085,10.4310546 7.58121418,10.1968809 8.03153195,10.1968809 C8.29903868,10.1968809 8.47121528,10.2270763 8.63959387,10.4151287 C8.95065115,10.7610382 8.92102665,10.9498551 8.61427378,11.1231283 C8.04229299,11.4398616 7.5005697,11.6747997 8.13559751,12.6460217 C8.7064389,13.5188856 9.31905843,13.9174141 10.1203126,13.9174141 C10.4558038,13.9165223 10.633804,13.7201884 10.6313986,13.3661249 L10.6465907,13.3661249 C10.7296405,13.5168471 10.8358583,13.6671872 10.9929695,13.802748 L11.9318383,13.8016013 Z" id="path54"></path>
                <path d="M12.6544736,11.0292295 L12.3439228,10.5537473 C12.1761772,10.3209751 11.9772879,10.1930587 11.7642193,10.1930587 C11.3817594,10.1930587 11.6626858,10.6229292 12.0107104,11.1419845 L12.6653613,12.1434019 C13.1839167,12.9710364 13.3816666,13.1211216 13.7038647,13.1595985 C14.0042875,13.1516993 13.8299587,12.8730606 13.6390453,12.534923 L13.3829326,12.1431471 L14.3745938,12.1420004 L14.6308331,12.5337763 C15.2118025,13.4211646 15.1582506,13.9111712 14.1729193,13.9118108 C13.2958315,13.9130823 12.4914123,13.4544178 11.7913118,12.3253388 L10.8902965,10.9475617 C10.1048674,9.75783709 10.4930243,9.44148602 11.2483225,9.44059134 C12.2485926,9.43906529 13.0187031,10.0562238 13.4244575,10.6876519 L13.6461349,11.027191 L12.6544736,11.0292295 Z" id="path56"></path>
                <path d="M16.1453542,13.7963776 L12.4522927,8.15060038 L13.4448402,8.14970854 L15.1139404,10.7010296 C15.2321852,10.8819472 15.3378966,11.0556027 15.4482922,11.2365203 L15.4634842,11.2365203 L15.2996632,9.54901736 L16.3834896,9.54787069 L16.4171653,11.2577973 L19.1302128,13.7935747 L18.0229653,13.7948488 L16.2719546,12.0645371 L16.2906915,12.5015424 L17.1373952,13.7963776 L16.1453542,13.7963776 Z" id="path58"></path>
                <path d="M20.2878472,12.014721 C20.5311732,12.4206391 21.1148013,13.1508074 20.5273752,13.1517072 C20.1609936,13.1532281 19.9190601,12.9342159 19.7072576,12.6106026 C19.5890128,12.429685 19.4743128,12.2188267 19.5406514,12.0979177 C19.6620612,11.8868046 19.8515821,11.7206662 19.9874244,11.5550373 L20.2878472,12.014721 Z M22.5263962,13.7901347 C22.344598,13.5946927 22.1862208,13.3979766 22.0536701,13.195782 L20.4138146,10.6876519 C20.0655368,10.1312664 19.5224209,9.43078385 18.1717208,9.43307156 C16.9279981,9.43396902 17.0295317,9.99876334 17.5639121,10.8042291 L18.510377,10.8038469 C18.2521121,10.4189509 18.1756455,10.186561 18.6259632,10.1851595 C18.8930901,10.1851595 19.0658997,10.2142082 19.2337719,10.4034073 C19.5450824,10.749699 19.5154579,10.9380062 19.2088316,11.1116617 C18.6368509,11.4294142 18.0946212,11.6633331 18.7297756,12.6335358 C19.3008702,13.507419 19.9131099,13.9063297 20.7152503,13.9051855 C21.0502351,13.9042912 21.2282353,13.709104 21.2258299,13.3546583 L21.2406421,13.3546583 C21.3240718,13.5051257 21.4302896,13.655848 21.5874007,13.7908992 L22.5263962,13.7901347 Z" id="path60"></path>
                <path d="M23.554012,11.1219816 L24.3861567,12.3940111 C24.7059494,12.8832532 24.7189892,13.1471136 24.3974241,13.1471136 C24.0926968,13.1477497 23.7740435,12.8242638 23.4852679,12.4178361 L22.5591857,11.0026015 C22.3138341,10.5816494 22.0075876,10.1814647 22.4729708,10.1812099 C22.9384806,10.1812099 23.3480331,10.7833344 23.554012,11.1219816 Z M23.744419,14.2635784 C24.265633,14.9789675 24.9648473,15.2192567 25.621777,15.2184941 C26.9805795,15.2160716 26.771942,14.5239978 26.206038,13.6578865 L23.5126136,9.53958925 L22.5201928,9.54124554 L22.8056768,9.97786862 L22.7901049,9.97786862 C22.401948,9.59386455 22.013791,9.42110093 21.5682841,9.42887275 C20.9370543,9.44390675 20.7876657,9.77605626 21.5273921,10.9428477 L22.5320932,12.4796284 C22.9987424,13.1576874 23.6530135,13.9009786 24.4928808,13.9009786 C24.9048387,13.8781728 25.1044876,13.7497468 25.0375159,13.3425546 L25.0623296,13.3572064 L25.3822489,13.8479774 C25.5983559,14.1782158 25.7388824,14.5094735 25.3198349,14.5102379 C25.1972857,14.5102379 25.0803069,14.4962232 24.9749753,14.4504841 C24.8814176,14.4120073 24.7962155,14.3522535 24.7369665,14.2620495 L23.744419,14.2635784 Z" id="path62"></path>
                <path d="M25.2460269,9.02601247 L24.6650574,8.13709526 L23.67251,8.13875155 L24.252973,9.02639469 L25.2460269,9.02601247 Z M28.3584987,13.7841466 L25.5811382,9.53716852 L24.5889706,9.53882481 L27.3649384,13.7850384 L28.3584987,13.7841466 Z" id="path64"></path>
                <path d="M27.8890643,9.97137088 L27.9047627,9.97137088 C27.806141,9.48263842 28.2091102,9.42185584 28.4392698,9.42185584 C29.0018821,9.41982687 29.6719783,9.74458678 30.1387541,10.5038039 L32.2810867,13.7791777 L31.2896787,13.7799422 L29.4376408,10.9498551 C29.1664627,10.5348911 28.9441523,10.2647887 28.5594136,10.2502643 C28.1755611,10.2353578 28.2730434,10.5817768 28.5828347,11.0339435 L30.3798013,13.7814711 L29.3881401,13.7829999 L26.6110328,9.53653149 L27.6035803,9.53474779 L27.8890643,9.97137088 Z" id="path66"></path>
                <path d="M33.3089557,11.1108972 L34.1411004,12.3829267 C34.4608931,12.8730606 34.4730468,13.1364105 34.1532541,13.1367927 C33.848147,13.1367927 33.5289873,12.8129246 33.2395787,12.4068792 L32.3133699,10.9915171 C32.0691576,10.5694184 31.7624047,10.1705075 32.2275348,10.1705075 C32.6934244,10.1701255 33.102597,10.7719952 33.3089557,11.1108972 Z M33.4994894,14.2522392 C34.0205768,14.9683927 34.7205506,15.2074079 35.3759611,15.2074079 C36.7366626,15.2062612 36.5271389,14.5132957 35.9603487,13.6471843 L33.2674308,9.52863227 L32.2750099,9.53028856 L32.5598609,9.96729386 L32.5458083,9.96729386 C32.1572715,9.58239794 31.7694944,9.41014395 31.3239874,9.41766095 C30.6918714,9.43371421 30.5421031,9.76624594 31.2818295,10.9327825 L32.2875434,12.4687989 C32.7525468,13.1457111 33.4087169,13.8912957 34.248331,13.8909135 C34.661175,13.8672158 34.8591781,13.7392994 34.7929661,13.3318525 L34.8171468,13.3470139 L35.1363065,13.836256 C35.353173,14.1673862 35.4935729,14.4986439 35.0735127,14.5001728 C34.9513432,14.5001728 34.8358836,14.4860306 34.7297925,14.4405464 C34.6362347,14.4019421 34.5511592,14.3423158 34.4914038,14.2513473 L33.4994894,14.2522392 Z" id="path68"></path>
            </g>
            <polygon id="polygon72" fill="#F99D1C" points="48.2328689 0.280804574 36.4651047 20.5721202 48.223627 39.831186 60 20.6730264"></polygon>
        </g>
    </g>
</svg>