<?xml version="1.0" encoding="UTF-8"?>
<svg width="160px" height="160px" viewBox="0 0 160 160" version="1.1" xmlns="http://www.w3.org/2000/svg" xmlns:xlink="http://www.w3.org/1999/xlink">
    <title>Location</title>
    <g id="05012021" stroke="none" stroke-width="1" fill="none" fill-rule="evenodd">
        <g id="Home" transform="translate(-961.000000, -466.000000)" fill-rule="nonzero">
            <g id="Group-6" transform="translate(893.000000, 429.000000)">
                <g id="Group-8" transform="translate(68.000000, 37.000000)">
                    <g id="ca-svg-5">
                        <g id="Group">
                            <path d="M0,80 L0,0 L80,0 L160,0 L160,80 L160,160 L80,160 L0,160 L0,80 Z M133.35,143.15 L133,142.85 L133,143.5 L133,144.15 L133.35,143.85 L133.65,143.5 L133.35,143.15 Z M87.85,129.15 L87.5,128.85 L87.15,129.15 L86.85,129.5 L87.5,129.5 L88.15,129.5 L87.85,129.15 L87.85,129.15 Z M82,127.75 C82,127.6 81.9,127.5 81.75,127.5 C81.6,127.5 81.5,127.6 81.5,127.75 C81.5,127.9 81.6,128 81.75,128 C81.9,128 82,127.9 82,127.75 Z M75.5,123.75 C75.5,123.6 75.4,123.5 75.25,123.5 C75.1,123.5 75,123.6 75,123.75 C75,123.9 75.1,124 75.25,124 C75.4,124 75.5,123.9 75.5,123.75 Z M47.5,80.75 C47.5,80.65 46.85,80.5 46,80.4 L44.5,80.15 L44.5,80.75 L44.5,81.35 L46,81.1 C46.85,81 47.5,80.85 47.5,80.75 Z M48.85,79.15 L48.5,78.85 L48.5,79.5 L48.5,80.15 L48.85,79.85 L49.15,79.5 L48.85,79.15 L48.85,79.15 Z M47.25,73.9 L46.9,72.25 L46,71.3 L45.05,70.35 L44.45,71.65 L43.85,73 L42.8,73 L41.75,73.05 L43.15,74.25 L44.55,75.5 L46.05,75.5 L47.6,75.5 L47.25,73.9 L47.25,73.9 Z M63.85,18.15 L63.5,17.85 L63.15,18.15 L62.85,18.5 L63.5,18.5 L64.15,18.5 L63.85,18.15 L63.85,18.15 Z M53,17.75 C53,17.6 52.9,17.5 52.75,17.5 C52.6,17.5 52.5,17.6 52.5,17.75 C52.5,17.9 52.6,18 52.75,18 C52.9,18 53,17.9 53,17.75 Z" id="Shape"></path>
                        </g>
                        <g id="Group" transform="translate(24.400000, 15.000000)" fill="#F79B18">
                            <path d="M78.75,133.7 L77.2,131.75 L75.9,128 L74.65,124.25 L72.15,121.9 L69.7,119.5 L67.5,119.8 L65.3,120.1 L64.45,119.25 L63.6,118.45 L63.6,117.2 L63.6,116 L62.5,116 L61.35,116 L59.9,115.25 L58.5,114.5 L57,114.5 L55.55,114.5 L54.35,113.25 L53.1,112.05 L53.1,111.25 L53.1,110.5 L51.25,110.5 L49.35,110.45 L48.15,109.8 L46.95,109.15 L43.6,109.4 L40.2,109.65 L39.7,108.7 L39.25,107.75 L38.95,103.5 L38.7,99.25 L37.65,98.4 L36.55,97.55 L36.05,96.05 L35.5,94.55 L34.55,94.25 C34.05,94.05 32.9,93.35 32.1,92.65 L30.6,91.4 L30.6,90.7 L30.6,90 L29.05,88.65 L27.45,87.25 L25.55,84.3 L23.6,81.35 L23.6,79.8 L23.65,78.25 L24.35,77 C24.75,76.3 25.05,75.45 25.1,75.1 L25.1,74.45 L22.9,73.5 L20.65,72.55 L19.9,71.15 C19.5,70.35 18.95,68.5 18.7,67 L18.2,64.25 L18.7,63.35 L19.15,62.45 L16.95,60.5 L14.8,58.55 L13.1,55.45 C12.2,53.7 10.35,51 9.05,49.35 L6.7,46.45 L6.1,44.25 L5.5,42.05 L5.85,37.6 L6.2,33.1 L5.6,31.95 C5.25,31.3 3.85,29.75 2.5,28.5 L0,26.25 L0,23.7 L0.05,21.15 L1.6,17.25 L3.15,13.3 L3.45,11 L3.7,8.75 L2.15,7.9 L0.6,7.05 L0.6,5.5 L0.6,4 L1.85,2 L3.1,0 L6.5,0 C8.35,0 13.1,0.25 17.1,0.5 C21.1,0.75 29.55,1.2 35.85,1.5 C42.2,1.8 47.75,2.15 48.25,2.3 L49.1,2.55 L49.1,23.05 L49.1,43.5 L50.5,44.95 C51.25,45.75 56.35,50.5 61.85,55.55 C67.35,60.6 71.95,64.8 72.1,65 C72.25,65.15 76.15,68.75 80.85,73 C85.5,77.25 90.9,82.2 92.85,84 C102.75,93.15 107.3,97.3 107.85,97.75 C108.2,98.05 109.2,99.9 110.15,101.95 L111.8,105.65 L113.2,107.05 L114.6,108.4 L114.6,109.25 C114.6,110.4 113.6,112.1 112.35,113.1 L111.25,113.95 L110.95,116.65 L110.7,119.4 L109.9,120.9 L109.1,122.45 L109.1,124.2 L109.1,125.95 L110.1,126.5 L111.1,127.05 L111.1,128.3 L111.1,129.6 L109.7,131 L108.3,132.4 L104.55,132.75 C102.55,132.95 99.95,133.3 98.85,133.6 C97.75,133.85 94.5,134.25 91.6,134.5 C88.7,134.75 85,135.1 83.3,135.3 L80.25,135.6 L78.75,133.7 L78.75,133.7 Z M90.35,131.5 L95.85,131.1 L97.5,130.55 C98.4,130.3 100.75,129.9 102.75,129.7 C104.75,129.5 106.55,129.25 106.75,129.15 L107.15,128.9 L106.5,128.15 L105.85,127.35 L105.85,124.55 L105.8,121.75 L106.7,120.2 L107.6,118.7 L108,115.6 L108.45,112.45 L109.75,111.1 C111.25,109.5 111.4,109 110.4,109 C110,109 109.3,108.65 108.9,108.2 L108.1,107.45 L108.1,106.1 L108.1,104.75 L106.85,102.9 C106.15,101.9 105.6,100.85 105.6,100.6 C105.6,100.35 100.5,95.45 94.25,89.7 C87.95,83.95 81.05,77.55 78.85,75.5 C76.65,73.45 68.35,65.8 60.45,58.55 L46.1,45.35 L46.1,25.15 L46.1,5 L43.25,5 C40.35,5 30.95,4.5 14.2,3.5 L5.35,2.95 L4.45,4.05 L3.55,5.15 L5.05,5.8 L6.55,6.4 L6.7,7.85 C6.8,8.6 6.65,10.45 6.45,11.95 L6.05,14.7 L4.6,18.4 L3.1,22.1 L3.1,23.5 L3.1,24.95 L5.15,26.6 L7.2,28.25 L8.2,30.25 L9.25,32.25 L8.95,37.15 L8.65,42.1 L9.3,43.7 C9.65,44.55 11,46.5 12.25,48.05 L14.55,50.9 L15.9,53.7 C16.6,55.25 17.4,56.5 17.6,56.5 C17.8,56.5 18.2,55.95 18.5,55.25 L19.1,54 L20.75,54 L22.45,54 L23.25,54.9 L24.1,55.8 L24.4,58.3 L24.7,60.75 L25.4,61.85 L26.1,62.95 L26.1,64.7 L26.1,66.45 L25.15,67 C24.6,67.25 23.7,67.5 23.15,67.5 L22.1,67.5 L22.1,67.95 C22.1,68.2 22.25,68.75 22.4,69.2 L22.7,70 L24.85,70.95 L27,71.9 L27.55,72.9 C28.3,74.3 28.25,76.2 27.35,78.3 L26.65,80.05 L28.15,82.45 L29.6,84.9 L31.3,86.15 L32.95,87.45 L33.55,88.9 L34.15,90.35 L35.9,91.15 L37.6,92 L38.45,93.7 L39.25,95.45 L40.3,95.6 L41.35,95.75 L41.7,98 C41.85,99.25 42.05,101.4 42.05,102.75 L42.1,105.25 L42.55,105.95 L43,106.6 L45.4,106.1 L47.8,105.6 L48.8,106.3 L49.8,107 L51,107 C51.6,107 52.9,107.35 53.85,107.7 L55.6,108.45 L56.2,109.7 L56.75,111 L57.8,111 C58.4,111.05 59.4,111.35 60.1,111.75 L61.35,112.45 L63.1,112.5 C64.05,112.5 65.15,112.7 65.5,112.95 L66.15,113.35 L66.55,114.8 L66.95,116.25 L67.9,116.15 C68.4,116.05 69.35,116.1 69.95,116.25 L71,116.5 L73.85,119.1 L76.65,121.65 L77.55,123.45 C78.05,124.45 78.75,126.15 79.1,127.25 C79.45,128.35 80.2,130 80.75,130.9 L81.75,132.6 L83.3,132.25 C84.15,132.05 87.35,131.7 90.35,131.5 Z M21.95,62.65 L21.1,61.8 L20.75,62.2 L20.35,62.6 L21.3,63.3 L22.3,64 L22.55,63.75 L22.8,63.5 L21.95,62.65 L21.95,62.65 Z" id="Shape"></path>
                        </g>
                    </g>
                    <g id="star-regular" transform="translate(38.487179, 67.459459)" fill="#FFFFFF">
                        <polygon id="Shape" points="19.5192308 15.9393623 21.0520531 24.972973 13.0128205 20.7107275 4.97358796 24.972973 6.50641026 15.9393623 0 9.54273039 8.98997043 8.22424097 13.0128205 2.84217094e-14 17.0356706 8.22424097 26.025641 9.54273039"></polygon>
                    </g>
                </g>
            </g>
        </g>
    </g>
</svg>