<?xml version="1.0" encoding="UTF-8"?>
<svg width="42px" height="42px" viewBox="0 0 42 42" version="1.1" xmlns="http://www.w3.org/2000/svg" xmlns:xlink="http://www.w3.org/1999/xlink">
    <title>right-chevron</title>
    <g id="Page-1" stroke="none" stroke-width="1" fill="none" fill-rule="evenodd">
        <g id="right-chevron" fill="#FFFFFF" fill-rule="nonzero">
            <path d="M35.8492948,6.15070515 C31.8828495,2.18443299 26.6092948,0 21,0 C15.3907052,0 10.1171505,2.18443299 6.15070515,6.15070515 C2.18443299,10.1171505 0,15.3907052 0,21 C0,26.6092948 2.18443299,31.8828495 6.15070515,35.8492948 C10.1171505,39.815567 15.3907052,42 21,42 C26.6092948,42 31.8828495,39.815567 35.8492948,35.8492948 C39.815567,31.8828495 42,26.6092948 42,21 C42,15.3907052 39.815567,10.1171505 35.8492948,6.15070515 Z M21,39.4020619 C10.8530598,39.4020619 2.59793814,31.1469402 2.59793814,21 C2.59793814,10.8530598 10.8530598,2.59793814 21,2.59793814 C31.1469402,2.59793814 39.4020619,10.8530598 39.4020619,21 C39.4020619,31.1469402 31.1469402,39.4020619 21,39.4020619 Z" id="Shape"></path>
            <polygon id="Path" points="16.7331464 11.7417278 25.9612825 21 16.7331464 30.2582722 18.5731794 32.0922433 29.6293113 21 18.5731794 9.9077567"></polygon>
        </g>
    </g>
</svg>