<?xml version="1.0" encoding="UTF-8"?>
<svg width="146px" height="120px" viewBox="0 0 146 120" version="1.1" xmlns="http://www.w3.org/2000/svg" xmlns:xlink="http://www.w3.org/1999/xlink">
    <title>Group 3</title>
    <g id="05012021" stroke="none" stroke-width="1" fill="none" fill-rule="evenodd">
        <g id="Home" transform="translate(-655.000000, -472.000000)" fill-rule="nonzero">
            <g id="Group-5" transform="translate(572.000000, 429.000000)">
                <g id="Group-3" transform="translate(83.000000, 43.000000)">
                    <g id="box-open-solid" transform="translate(82.000000, 74.000000)" fill="#F99D1C">
                        <path d="M42.5715484,22.5031119 C40.8816549,22.5031119 39.2917552,21.5991182 38.4318094,20.1527282 L32.0022148,9.44542485 L25.5826196,20.1527282 C24.7126744,21.6091625 23.1227747,22.5131563 21.4328812,22.5131563 C20.9829096,22.5131563 20.532938,22.45289 20.1029651,22.3223131 L6.40382881,18.3849183 L6.40382881,36.2639052 C6.40382881,37.7404282 7.40376576,39.0261082 8.82367623,39.3776613 L30.4423132,44.811668 C31.4622488,45.0627773 32.5321814,45.0627773 33.5421177,44.811668 L55.1807534,39.3776613 C56.6006638,39.0160638 57.6006008,37.7303839 57.6006008,36.2639052 L57.6006008,18.3849183 L43.9014645,22.3122688 C43.4714917,22.4428456 43.02152,22.5031119 42.5715484,22.5031119 Z M63.830208,11.2333235 L58.6805327,0.907706404 C58.3705523,0.284955176 57.7005945,-0.0766423111 57.010638,0.0137570607 L32.0022148,3.21791257 L41.1716367,18.4954064 C41.5516127,19.128202 42.3115648,19.4295332 43.02152,19.2286458 L62.8102723,13.5535741 C63.8002099,13.2622872 64.2801796,12.157406 63.830208,11.2333235 L63.830208,11.2333235 Z M5.3238969,0.907706404 L0.174221589,11.2333235 C-0.285749409,12.157406 0.204219698,13.2622872 1.18415791,13.5435297 L20.9729102,19.2186014 C21.6828654,19.4194889 22.4428175,19.1181576 22.8227936,18.485362 L32.0022148,3.21791257 L6.98379224,0.0137570607 C6.29383574,-0.0665979364 5.63387735,0.284955176 5.3238969,0.907706404 Z" id="Shape"></path>
                    </g>
                    <g id="layer-group-solid" transform="translate(0.000000, 69.000000)" fill="#FFFFFF">
                        <path d="M1.23638929,14.7447083 L24.4391705,25.2702775 C25.1165077,25.578066 25.8824963,25.578066 26.5598334,25.2702775 L49.7626146,14.7447083 C51.4111337,13.9966528 51.4111337,11.5054587 49.7626146,10.7574032 L26.5608295,0.23083791 C25.887445,-0.0769459699 25.1135511,-0.0769459699 24.4401666,0.23083791 L1.23638929,10.7564071 C-0.412129764,11.5044626 -0.412129764,13.9966528 1.23638929,14.7447083 Z M49.7636107,23.5380957 L43.9773586,20.9154191 L27.8766565,28.2136916 C27.123617,28.5553468 26.3237615,28.7286646 25.5,28.7286646 C24.6762385,28.7286646 23.8773791,28.5553468 23.1233435,28.2136916 L7.02363746,20.9154191 L1.23638929,23.5380957 C-0.412129764,24.2851551 -0.412129764,26.7753532 1.23638929,27.5224126 L24.4391705,38.0400132 C25.1165077,38.3468056 25.8824963,38.3468056 26.5598334,38.0400132 L49.7636107,27.5224126 C51.4121298,26.7753532 51.4121298,24.2851551 49.7636107,23.5380957 Z M49.7636107,36.2679882 L43.9992725,33.6552724 L27.8766565,40.9635057 C27.123617,41.3051609 26.3237615,41.4784787 25.5,41.4784787 C24.6762385,41.4784787 23.8773791,41.3051609 23.1233435,40.9635057 L7.00172362,33.6552724 L1.23638929,36.2679882 C-0.412129764,37.0150477 -0.412129764,39.5052457 1.23638929,40.2523051 L24.4391705,50.7699057 C25.1165077,51.0766981 25.8824963,51.0766981 26.5598334,50.7699057 L49.7636107,40.2523051 C51.4121298,39.5052457 51.4121298,37.0150477 49.7636107,36.2679882 Z" id="Shape"></path>
                    </g>
                    <g id="people-carry-solid" transform="translate(37.000000, -0.000000)" fill="#FFFFFF">
                        <path d="M12.8008986,9.5625 C15.4507745,9.5625 17.6006739,7.42089844 17.6006739,4.78125 C17.6006739,2.14160156 15.4507745,0 12.8008986,0 C10.1510226,0 8.00112321,2.14160156 8.00112321,4.78125 C8.00112321,7.42089844 10.1510226,9.5625 12.8008986,9.5625 Z M51.1991014,9.5625 C53.8489774,9.5625 55.9988768,7.42089844 55.9988768,4.78125 C55.9988768,2.14160156 53.8489774,0 51.1991014,0 C48.5492255,0 46.3993261,2.14160156 46.3993261,4.78125 C46.3993261,7.42089844 48.5492255,9.5625 51.1991014,9.5625 Z M63.7685132,46.6271484 L59.3687191,35.6701172 L55.2589114,40.2919922 L55.0589208,42.1048828 L57.8287911,48.9978516 C58.3287677,50.2429688 59.5287116,51 60.7986521,51 C61.1986334,51 61.5986147,50.9302734 61.9885965,50.7708984 C63.6285197,50.1134766 64.4284823,48.2607422 63.7685132,46.6271484 L63.7685132,46.6271484 Z M60.3486732,25.7291016 L58.4987598,17.7404297 C58.0387813,15.7482422 56.6388468,14.0748047 54.7489353,13.2679687 C52.8990219,12.4710937 50.8491178,12.6005859 49.1391978,13.5966797 C46.8693041,14.9314453 45.1693836,17.0332031 44.329423,19.5134766 L43.1994758,22.8902344 L41.5995507,23.90625 L41.5995507,14.34375 C41.5995507,13.4671875 40.8795844,12.75 39.9996256,12.75 L24.0003744,12.75 C23.1204156,12.75 22.4004493,13.4671875 22.4004493,14.34375 L22.4004493,23.90625 L20.7905246,22.8902344 L19.6605775,19.5134766 C18.8306164,17.0232422 17.1206964,14.9314453 14.8508026,13.5966797 C13.1308831,12.6005859 11.0909786,12.4710937 9.24106518,13.2679687 C7.35115363,14.0748047 5.95121915,15.7482422 5.49124068,17.7404297 L3.65132679,25.7291016 C3.19134832,27.7212891 3.72132352,29.8330078 5.0912594,31.3769531 L11.8109449,38.9373047 L12.8208976,48.1611328 C13.0008892,49.7847656 14.3808246,51 16.0007488,51 C16.1207432,51 16.230738,50.9900391 16.3507324,50.9800781 C18.1106501,50.7908203 19.3705911,49.2169922 19.1806,47.4638672 L18.1706472,38.2201172 C18.0206543,36.9251953 17.4806795,35.7199219 16.6107203,34.7337891 L12.2809229,29.8529297 L14.0408405,22.8503906 L14.7208087,24.8824219 C15.1307895,26.1275391 15.910753,27.2132812 17.1706941,28.1296875 L22.2804549,31.3669922 C22.7404334,31.6558594 23.4903983,31.8251953 24.0003744,31.8650391 L39.9996256,31.8650391 C40.5096017,31.8251953 41.2595666,31.6558594 41.7195451,31.3669922 L46.8293059,28.1296875 C48.089247,27.2132812 48.8692105,26.1375 49.2791913,24.8824219 L49.9591595,22.8503906 L51.7190771,29.8529297 L47.3892797,34.7337891 C46.5193205,35.7199219 45.9793457,36.9251953 45.8293528,38.2201172 L44.8194,47.4638672 C44.6294089,49.2169922 45.8993495,50.7908203 47.6492676,50.9800781 C47.769262,50.9900391 47.8792568,51 47.9992512,51 C49.6091758,51 50.9991108,49.7947266 51.1791024,48.1611328 L52.1890551,38.9373047 L58.9087406,31.3769531 C60.268677,29.8330078 60.8086517,27.7212891 60.3486732,25.7291016 Z M4.63128093,35.6701172 L0.231486849,46.6271484 C-0.428482263,48.2607422 0.371480297,50.1134766 2.01140354,50.7708984 C3.69132492,51.4283203 5.52123927,50.6015625 6.17120885,48.9978516 L8.94107922,42.1048828 L8.74108858,40.2919922 L4.63128093,35.6701172 L4.63128093,35.6701172 Z" id="Shape"></path>
                    </g>
                </g>
            </g>
        </g>
    </g>
</svg>